<?xml version="1.0" encoding="iso-8859-1"?>
<!-- Generator: Adobe Illustrator 19.0.0, SVG Export Plug-In . SVG Version: 6.00 Build 0)  -->
<svg version="1.1" id="Layer_1" xmlns="http://www.w3.org/2000/svg" xmlns:xlink="http://www.w3.org/1999/xlink" x="0px" y="0px"
	 viewBox="0 0 512.001 512.001" style="enable-background:new 0 0 512.001 512.001;" xml:space="preserve">
<polygon style="fill:#082947;" points="512.001,50.285 298.252,302.61 222.344,258.18 486.858,25.143 "/>
<polygon style="fill:#274B6D;" points="486.858,25.143 238.083,273.918 209.391,213.748 461.715,0 "/>
<polygon style="fill:#98D9D5;" points="274.637,326.21 159.389,399.828 112.172,384.09 222.344,258.18 "/>
<polygon style="fill:#C1E8E6;" points="230.214,281.788 120.042,391.959 112.172,352.611 185.775,237.365 "/>
<polygon style="fill:#77C0BC;" points="298.252,302.61 274.637,326.21 230.214,281.788 226.279,254.244 253.822,258.18 "/>
<polygon style="fill:#98D9D5;" points="253.822,258.18 230.214,281.788 185.775,237.365 209.391,213.748 "/>
<path style="fill:#FF6E1D;" d="M159.389,399.828c0,0-17.21,45.383-43.879,72.053C72.165,515.225,0.057,511.944,0.057,511.944
	l52.123-83.601l83.6-52.123L159.389,399.828z"/>
<path style="fill:#FF9D49;" d="M135.781,376.221L0.057,511.943c0,0-3.282-72.107,40.063-115.452
	c26.67-26.67,72.053-43.879,72.053-43.879L135.781,376.221z"/>
<g>
</g>
<g>
</g>
<g>
</g>
<g>
</g>
<g>
</g>
<g>
</g>
<g>
</g>
<g>
</g>
<g>
</g>
<g>
</g>
<g>
</g>
<g>
</g>
<g>
</g>
<g>
</g>
<g>
</g>
</svg>
